<mxfile host="Electron" modified="2024-02-19T17:05:30.505Z" agent="Mozilla/5.0 (Windows NT 10.0; Win64; x64) AppleWebKit/537.36 (KHTML, like Gecko) draw.io/23.0.2 Chrome/120.0.6099.109 Electron/28.1.0 Safari/537.36" etag="-nRpTaCtyY3MCa6dNIAz" version="23.0.2" type="device">
  <diagram name="Pagina-1" id="dsxdWCQ7GqbsdYa_XFen">
    <mxGraphModel dx="1036" dy="452" grid="1" gridSize="10" guides="1" tooltips="1" connect="1" arrows="1" fold="1" page="1" pageScale="1" pageWidth="827" pageHeight="1169" math="0" shadow="0">
      <root>
        <mxCell id="0" />
        <mxCell id="1" parent="0" />
        <mxCell id="BlBRRxsIzUEOzJf20E_O-1" value="Persona" style="rounded=0;whiteSpace=wrap;html=1;" parent="1" vertex="1">
          <mxGeometry x="219" y="178" width="120" height="60" as="geometry" />
        </mxCell>
        <mxCell id="BlBRRxsIzUEOzJf20E_O-21" style="edgeStyle=orthogonalEdgeStyle;rounded=0;orthogonalLoop=1;jettySize=auto;html=1;exitX=0.5;exitY=1;exitDx=0;exitDy=0;entryX=0.5;entryY=0;entryDx=0;entryDy=0;" parent="1" source="BlBRRxsIzUEOzJf20E_O-2" target="BlBRRxsIzUEOzJf20E_O-20" edge="1">
          <mxGeometry relative="1" as="geometry">
            <Array as="points">
              <mxPoint x="159" y="450" />
              <mxPoint x="219" y="450" />
            </Array>
          </mxGeometry>
        </mxCell>
        <mxCell id="BlBRRxsIzUEOzJf20E_O-2" value="Paziente" style="rounded=0;whiteSpace=wrap;html=1;" parent="1" vertex="1">
          <mxGeometry x="99" y="335" width="120" height="60" as="geometry" />
        </mxCell>
        <mxCell id="BlBRRxsIzUEOzJf20E_O-61" style="edgeStyle=orthogonalEdgeStyle;rounded=0;orthogonalLoop=1;jettySize=auto;html=1;exitX=0.5;exitY=0;exitDx=0;exitDy=0;" parent="1" source="BlBRRxsIzUEOzJf20E_O-3" target="BlBRRxsIzUEOzJf20E_O-60" edge="1">
          <mxGeometry relative="1" as="geometry" />
        </mxCell>
        <mxCell id="1d6_LqG59afSAswkyyWS-27" style="edgeStyle=orthogonalEdgeStyle;rounded=0;orthogonalLoop=1;jettySize=auto;html=1;exitX=1;exitY=0.75;exitDx=0;exitDy=0;entryX=0;entryY=0.5;entryDx=0;entryDy=0;" parent="1" source="BlBRRxsIzUEOzJf20E_O-3" target="BlBRRxsIzUEOzJf20E_O-16" edge="1">
          <mxGeometry relative="1" as="geometry" />
        </mxCell>
        <mxCell id="BlBRRxsIzUEOzJf20E_O-3" value="Medico" style="rounded=0;whiteSpace=wrap;html=1;" parent="1" vertex="1">
          <mxGeometry x="334" y="307.5" width="120" height="55" as="geometry" />
        </mxCell>
        <mxCell id="BlBRRxsIzUEOzJf20E_O-4" value="visita" style="whiteSpace=wrap;html=1;" parent="1" vertex="1">
          <mxGeometry x="319" y="550" width="120" height="60" as="geometry" />
        </mxCell>
        <mxCell id="BlBRRxsIzUEOzJf20E_O-5" value="Privata" style="rounded=0;whiteSpace=wrap;html=1;" parent="1" vertex="1">
          <mxGeometry x="319" y="680" width="120" height="60" as="geometry" />
        </mxCell>
        <mxCell id="BlBRRxsIzUEOzJf20E_O-99" style="edgeStyle=orthogonalEdgeStyle;rounded=0;orthogonalLoop=1;jettySize=auto;html=1;exitX=0;exitY=0.5;exitDx=0;exitDy=0;" parent="1" source="BlBRRxsIzUEOzJf20E_O-6" edge="1">
          <mxGeometry relative="1" as="geometry">
            <mxPoint x="179" y="690.1176470588236" as="targetPoint" />
          </mxGeometry>
        </mxCell>
        <mxCell id="BlBRRxsIzUEOzJf20E_O-6" value="intramoenia" style="rounded=0;whiteSpace=wrap;html=1;" parent="1" vertex="1">
          <mxGeometry x="169" y="680" width="120" height="60" as="geometry" />
        </mxCell>
        <mxCell id="BlBRRxsIzUEOzJf20E_O-7" value="SSN/impegnativa" style="rounded=0;whiteSpace=wrap;html=1;" parent="1" vertex="1">
          <mxGeometry x="469" y="685" width="120" height="60" as="geometry" />
        </mxCell>
        <mxCell id="BlBRRxsIzUEOzJf20E_O-18" style="edgeStyle=orthogonalEdgeStyle;rounded=0;orthogonalLoop=1;jettySize=auto;html=1;exitX=0;exitY=0.5;exitDx=0;exitDy=0;entryX=1;entryY=0.5;entryDx=0;entryDy=0;" parent="1" source="BlBRRxsIzUEOzJf20E_O-12" target="BlBRRxsIzUEOzJf20E_O-16" edge="1">
          <mxGeometry relative="1" as="geometry" />
        </mxCell>
        <mxCell id="BlBRRxsIzUEOzJf20E_O-36" style="edgeStyle=orthogonalEdgeStyle;rounded=0;orthogonalLoop=1;jettySize=auto;html=1;exitX=0.5;exitY=0;exitDx=0;exitDy=0;entryX=0.5;entryY=1;entryDx=0;entryDy=0;" parent="1" source="BlBRRxsIzUEOzJf20E_O-12" target="BlBRRxsIzUEOzJf20E_O-34" edge="1">
          <mxGeometry relative="1" as="geometry" />
        </mxCell>
        <mxCell id="BlBRRxsIzUEOzJf20E_O-12" value="Ospedale" style="rounded=0;whiteSpace=wrap;html=1;" parent="1" vertex="1">
          <mxGeometry x="679" y="448" width="120" height="60" as="geometry" />
        </mxCell>
        <mxCell id="BlBRRxsIzUEOzJf20E_O-15" value="" style="shape=flexArrow;endArrow=classic;html=1;rounded=0;entryX=0.5;entryY=1;entryDx=0;entryDy=0;" parent="1" edge="1" target="BlBRRxsIzUEOzJf20E_O-1">
          <mxGeometry width="50" height="50" relative="1" as="geometry">
            <mxPoint x="279" y="280" as="sourcePoint" />
            <mxPoint x="289" y="409.5" as="targetPoint" />
          </mxGeometry>
        </mxCell>
        <mxCell id="BlBRRxsIzUEOzJf20E_O-16" value="lavoro" style="rhombus;whiteSpace=wrap;html=1;" parent="1" vertex="1">
          <mxGeometry x="554" y="330" width="80" height="80" as="geometry" />
        </mxCell>
        <mxCell id="BlBRRxsIzUEOzJf20E_O-22" style="edgeStyle=orthogonalEdgeStyle;rounded=0;orthogonalLoop=1;jettySize=auto;html=1;exitX=1;exitY=0.5;exitDx=0;exitDy=0;entryX=0;entryY=0.5;entryDx=0;entryDy=0;" parent="1" source="BlBRRxsIzUEOzJf20E_O-20" target="BlBRRxsIzUEOzJf20E_O-4" edge="1">
          <mxGeometry relative="1" as="geometry" />
        </mxCell>
        <mxCell id="BlBRRxsIzUEOzJf20E_O-20" value="prenotazione" style="rhombus;whiteSpace=wrap;html=1;" parent="1" vertex="1">
          <mxGeometry x="179" y="540" width="80" height="80" as="geometry" />
        </mxCell>
        <mxCell id="BlBRRxsIzUEOzJf20E_O-95" style="edgeStyle=orthogonalEdgeStyle;rounded=0;orthogonalLoop=1;jettySize=auto;html=1;exitX=0;exitY=0.5;exitDx=0;exitDy=0;entryX=0.5;entryY=0;entryDx=0;entryDy=0;" parent="1" source="BlBRRxsIzUEOzJf20E_O-23" target="BlBRRxsIzUEOzJf20E_O-4" edge="1">
          <mxGeometry relative="1" as="geometry" />
        </mxCell>
        <mxCell id="BlBRRxsIzUEOzJf20E_O-23" value="gestione" style="rhombus;whiteSpace=wrap;html=1;" parent="1" vertex="1">
          <mxGeometry x="399" y="440" width="80" height="80" as="geometry" />
        </mxCell>
        <mxCell id="BlBRRxsIzUEOzJf20E_O-32" value="stipendio" style="text;html=1;align=center;verticalAlign=middle;resizable=0;points=[];autosize=1;strokeColor=none;fillColor=none;" parent="1" vertex="1">
          <mxGeometry x="559" y="275" width="70" height="30" as="geometry" />
        </mxCell>
        <mxCell id="BlBRRxsIzUEOzJf20E_O-35" style="edgeStyle=orthogonalEdgeStyle;rounded=0;orthogonalLoop=1;jettySize=auto;html=1;exitX=0.5;exitY=1;exitDx=0;exitDy=0;entryX=0.5;entryY=0;entryDx=0;entryDy=0;" parent="1" source="BlBRRxsIzUEOzJf20E_O-33" target="BlBRRxsIzUEOzJf20E_O-34" edge="1">
          <mxGeometry relative="1" as="geometry" />
        </mxCell>
        <mxCell id="BlBRRxsIzUEOzJf20E_O-33" value="Reparto" style="rounded=0;whiteSpace=wrap;html=1;" parent="1" vertex="1">
          <mxGeometry x="699" y="140" width="120" height="60" as="geometry" />
        </mxCell>
        <mxCell id="BlBRRxsIzUEOzJf20E_O-34" value="contenimento" style="rhombus;whiteSpace=wrap;html=1;" parent="1" vertex="1">
          <mxGeometry x="719" y="255" width="80" height="80" as="geometry" />
        </mxCell>
        <mxCell id="BlBRRxsIzUEOzJf20E_O-54" value="&lt;u&gt;cod osp&lt;/u&gt;" style="text;html=1;align=left;verticalAlign=middle;resizable=0;points=[];autosize=1;strokeColor=none;fillColor=none;" parent="1" vertex="1">
          <mxGeometry x="579" y="490" width="70" height="30" as="geometry" />
        </mxCell>
        <mxCell id="BlBRRxsIzUEOzJf20E_O-57" value="&lt;u&gt;nome&lt;/u&gt;" style="text;html=1;align=center;verticalAlign=middle;resizable=0;points=[];autosize=1;strokeColor=none;fillColor=none;" parent="1" vertex="1">
          <mxGeometry x="689" y="240" width="50" height="30" as="geometry" />
        </mxCell>
        <mxCell id="BlBRRxsIzUEOzJf20E_O-62" style="edgeStyle=orthogonalEdgeStyle;rounded=0;orthogonalLoop=1;jettySize=auto;html=1;exitX=0.5;exitY=0;exitDx=0;exitDy=0;" parent="1" source="BlBRRxsIzUEOzJf20E_O-60" target="BlBRRxsIzUEOzJf20E_O-33" edge="1">
          <mxGeometry relative="1" as="geometry">
            <Array as="points">
              <mxPoint x="449" y="170" />
            </Array>
          </mxGeometry>
        </mxCell>
        <mxCell id="BlBRRxsIzUEOzJf20E_O-60" value="direzione" style="rhombus;whiteSpace=wrap;html=1;" parent="1" vertex="1">
          <mxGeometry x="409" y="180" width="80" height="80" as="geometry" />
        </mxCell>
        <mxCell id="BlBRRxsIzUEOzJf20E_O-63" value="(0,1)" style="text;html=1;align=center;verticalAlign=middle;resizable=0;points=[];autosize=1;strokeColor=none;fillColor=none;" parent="1" vertex="1">
          <mxGeometry x="399" y="255" width="50" height="30" as="geometry" />
        </mxCell>
        <mxCell id="BlBRRxsIzUEOzJf20E_O-64" value="(1,1)" style="text;html=1;align=center;verticalAlign=middle;resizable=0;points=[];autosize=1;strokeColor=none;fillColor=none;" parent="1" vertex="1">
          <mxGeometry x="449" y="138" width="50" height="30" as="geometry" />
        </mxCell>
        <mxCell id="BlBRRxsIzUEOzJf20E_O-67" value="residenza&lt;span style=&quot;text-align: left;&quot;&gt;&lt;br&gt;&lt;/span&gt;" style="text;html=1;align=center;verticalAlign=middle;resizable=0;points=[];autosize=1;strokeColor=none;fillColor=none;" parent="1" vertex="1">
          <mxGeometry x="120" y="200" width="80" height="30" as="geometry" />
        </mxCell>
        <mxCell id="BlBRRxsIzUEOzJf20E_O-73" value="problematica" style="text;html=1;align=center;verticalAlign=middle;resizable=0;points=[];autosize=1;strokeColor=none;fillColor=none;" parent="1" vertex="1">
          <mxGeometry x="29" y="565" width="90" height="30" as="geometry" />
        </mxCell>
        <mxCell id="BlBRRxsIzUEOzJf20E_O-75" value="specializzazione" style="text;html=1;align=center;verticalAlign=middle;resizable=0;points=[];autosize=1;strokeColor=none;fillColor=none;" parent="1" vertex="1">
          <mxGeometry x="279" y="420.5" width="110" height="30" as="geometry" />
        </mxCell>
        <mxCell id="BlBRRxsIzUEOzJf20E_O-79" value="studio" style="rounded=0;whiteSpace=wrap;html=1;" parent="1" vertex="1">
          <mxGeometry x="699" y="800" width="120" height="60" as="geometry" />
        </mxCell>
        <mxCell id="BlBRRxsIzUEOzJf20E_O-83" value="indirizzo" style="text;html=1;align=center;verticalAlign=middle;resizable=0;points=[];autosize=1;strokeColor=none;fillColor=none;" parent="1" vertex="1">
          <mxGeometry x="724" y="760" width="70" height="30" as="geometry" />
        </mxCell>
        <mxCell id="BlBRRxsIzUEOzJf20E_O-90" value="effettuazione" style="rhombus;whiteSpace=wrap;html=1;" parent="1" vertex="1">
          <mxGeometry x="518" y="790" width="80" height="80" as="geometry" />
        </mxCell>
        <mxCell id="BlBRRxsIzUEOzJf20E_O-97" value="&lt;u&gt;data eff.&lt;/u&gt;" style="text;html=1;align=center;verticalAlign=middle;resizable=0;points=[];autosize=1;strokeColor=none;fillColor=none;" parent="1" vertex="1">
          <mxGeometry x="474" y="590" width="70" height="30" as="geometry" />
        </mxCell>
        <mxCell id="BlBRRxsIzUEOzJf20E_O-100" value="quota privata" style="text;html=1;align=center;verticalAlign=middle;resizable=0;points=[];autosize=1;strokeColor=none;fillColor=none;" parent="1" vertex="1">
          <mxGeometry x="29" y="695" width="90" height="30" as="geometry" />
        </mxCell>
        <mxCell id="BlBRRxsIzUEOzJf20E_O-102" value="num imp" style="text;html=1;align=center;verticalAlign=middle;resizable=0;points=[];autosize=1;strokeColor=none;fillColor=none;" parent="1" vertex="1">
          <mxGeometry x="544" y="630" width="70" height="30" as="geometry" />
        </mxCell>
        <mxCell id="1d6_LqG59afSAswkyyWS-1" value="(1, N)" style="text;html=1;align=center;verticalAlign=middle;resizable=0;points=[];autosize=1;strokeColor=none;fillColor=none;" parent="1" vertex="1">
          <mxGeometry x="639" y="340" width="50" height="30" as="geometry" />
        </mxCell>
        <mxCell id="1d6_LqG59afSAswkyyWS-2" value="(0, N)" style="text;html=1;align=center;verticalAlign=middle;resizable=0;points=[];autosize=1;strokeColor=none;fillColor=none;" parent="1" vertex="1">
          <mxGeometry x="504" y="340" width="50" height="30" as="geometry" />
        </mxCell>
        <mxCell id="1d6_LqG59afSAswkyyWS-5" value="" style="endArrow=none;html=1;rounded=0;" parent="1" edge="1">
          <mxGeometry width="50" height="50" relative="1" as="geometry">
            <mxPoint x="289" y="600" as="sourcePoint" />
            <mxPoint x="449" y="610" as="targetPoint" />
            <Array as="points">
              <mxPoint x="289" y="530" />
              <mxPoint x="449" y="530" />
            </Array>
          </mxGeometry>
        </mxCell>
        <mxCell id="1d6_LqG59afSAswkyyWS-6" value="" style="ellipse;whiteSpace=wrap;html=1;aspect=fixed;fillColor=#f5f5f5;fontColor=#333333;strokeColor=#666666;" parent="1" vertex="1">
          <mxGeometry x="444" y="610" width="10" height="10" as="geometry" />
        </mxCell>
        <mxCell id="1d6_LqG59afSAswkyyWS-14" value="" style="endArrow=none;html=1;rounded=0;entryX=1;entryY=0.5;entryDx=0;entryDy=0;" parent="1" edge="1" target="1d6_LqG59afSAswkyyWS-15">
          <mxGeometry width="50" height="50" relative="1" as="geometry">
            <mxPoint x="809" y="220" as="sourcePoint" />
            <mxPoint x="679" y="210" as="targetPoint" />
          </mxGeometry>
        </mxCell>
        <mxCell id="1d6_LqG59afSAswkyyWS-15" value="" style="ellipse;whiteSpace=wrap;html=1;aspect=fixed;fillColor=#f5f5f5;fontColor=#333333;strokeColor=#666666;" parent="1" vertex="1">
          <mxGeometry x="709" y="215" width="10" height="10" as="geometry" />
        </mxCell>
        <mxCell id="1d6_LqG59afSAswkyyWS-16" value="(0, N)" style="text;html=1;align=center;verticalAlign=middle;resizable=0;points=[];autosize=1;strokeColor=none;fillColor=none;" parent="1" vertex="1">
          <mxGeometry x="169" y="450.5" width="50" height="30" as="geometry" />
        </mxCell>
        <mxCell id="1d6_LqG59afSAswkyyWS-17" value="(0, N)" style="text;html=1;align=center;verticalAlign=middle;resizable=0;points=[];autosize=1;strokeColor=none;fillColor=none;" parent="1" vertex="1">
          <mxGeometry x="598" y="800" width="50" height="30" as="geometry" />
        </mxCell>
        <mxCell id="1d6_LqG59afSAswkyyWS-18" value="(1,1)" style="text;html=1;align=center;verticalAlign=middle;resizable=0;points=[];autosize=1;strokeColor=none;fillColor=none;" parent="1" vertex="1">
          <mxGeometry x="244" y="550" width="50" height="30" as="geometry" />
        </mxCell>
        <mxCell id="1d6_LqG59afSAswkyyWS-19" value="(1,1)" style="text;html=1;align=center;verticalAlign=middle;resizable=0;points=[];autosize=1;strokeColor=none;fillColor=none;" parent="1" vertex="1">
          <mxGeometry x="468" y="800" width="50" height="30" as="geometry" />
        </mxCell>
        <mxCell id="1d6_LqG59afSAswkyyWS-20" value="(0,N)" style="text;html=1;align=center;verticalAlign=middle;resizable=0;points=[];autosize=1;strokeColor=none;fillColor=none;" parent="1" vertex="1">
          <mxGeometry x="458" y="428" width="50" height="30" as="geometry" />
        </mxCell>
        <mxCell id="1d6_LqG59afSAswkyyWS-21" value="(1,1)" style="text;html=1;align=center;verticalAlign=middle;resizable=0;points=[];autosize=1;strokeColor=none;fillColor=none;" parent="1" vertex="1">
          <mxGeometry x="339" y="490" width="50" height="30" as="geometry" />
        </mxCell>
        <mxCell id="1d6_LqG59afSAswkyyWS-22" value="(1,N)" style="text;html=1;align=center;verticalAlign=middle;resizable=0;points=[];autosize=1;strokeColor=none;fillColor=none;" parent="1" vertex="1">
          <mxGeometry x="759" y="340" width="50" height="30" as="geometry" />
        </mxCell>
        <mxCell id="1d6_LqG59afSAswkyyWS-23" value="(1,1)" style="text;html=1;align=center;verticalAlign=middle;resizable=0;points=[];autosize=1;strokeColor=none;fillColor=none;" parent="1" vertex="1">
          <mxGeometry x="759" y="225" width="50" height="30" as="geometry" />
        </mxCell>
        <mxCell id="1d6_LqG59afSAswkyyWS-26" value="Business rules: &lt;br&gt;-num. pers. (Reparto) = num. medici totali -&amp;nbsp; num. medici con nome reparto differente dal richiesto;&lt;br&gt;-num. lavoratori (Ospedale) = num. medici assegnati all&#39;ospedale + num. lavoratori non medici;&lt;br&gt;-num. reparti (Ospedale) = contatore di reparti con nome differente associati a ospedale;&lt;br&gt;-se Medico si licenzia da Ospedale, non può essere assunto nuovamente nello stesso ospedale" style="text;html=1;align=center;verticalAlign=middle;resizable=0;points=[];autosize=1;strokeColor=none;fillColor=none;" parent="1" vertex="1">
          <mxGeometry x="110" y="950" width="550" height="90" as="geometry" />
        </mxCell>
        <mxCell id="FQ5N_f2iqAyfcSuhGjna-4" value="" style="endArrow=classic;html=1;rounded=0;exitX=0.5;exitY=1;exitDx=0;exitDy=0;entryX=0;entryY=0.5;entryDx=0;entryDy=0;" edge="1" parent="1" source="BlBRRxsIzUEOzJf20E_O-5" target="BlBRRxsIzUEOzJf20E_O-90">
          <mxGeometry width="50" height="50" relative="1" as="geometry">
            <mxPoint x="399" y="680" as="sourcePoint" />
            <mxPoint x="489" y="823" as="targetPoint" />
            <Array as="points">
              <mxPoint x="379" y="830" />
            </Array>
          </mxGeometry>
        </mxCell>
        <mxCell id="FQ5N_f2iqAyfcSuhGjna-5" value="" style="endArrow=classic;html=1;rounded=0;entryX=0;entryY=0.5;entryDx=0;entryDy=0;" edge="1" parent="1" target="BlBRRxsIzUEOzJf20E_O-79">
          <mxGeometry width="50" height="50" relative="1" as="geometry">
            <mxPoint x="598" y="830" as="sourcePoint" />
            <mxPoint x="648" y="780" as="targetPoint" />
          </mxGeometry>
        </mxCell>
        <mxCell id="FQ5N_f2iqAyfcSuhGjna-6" value="" style="endArrow=none;html=1;rounded=0;" edge="1" parent="1" source="BlBRRxsIzUEOzJf20E_O-79" target="BlBRRxsIzUEOzJf20E_O-83">
          <mxGeometry width="50" height="50" relative="1" as="geometry">
            <mxPoint x="709" y="820" as="sourcePoint" />
            <mxPoint x="759" y="770" as="targetPoint" />
          </mxGeometry>
        </mxCell>
        <mxCell id="FQ5N_f2iqAyfcSuhGjna-8" value="" style="endArrow=none;html=1;rounded=0;exitX=0.75;exitY=0;exitDx=0;exitDy=0;" edge="1" parent="1" source="BlBRRxsIzUEOzJf20E_O-7">
          <mxGeometry width="50" height="50" relative="1" as="geometry">
            <mxPoint x="399" y="680" as="sourcePoint" />
            <mxPoint x="559" y="670" as="targetPoint" />
            <Array as="points" />
          </mxGeometry>
        </mxCell>
        <mxCell id="FQ5N_f2iqAyfcSuhGjna-9" value="" style="endArrow=none;html=1;rounded=0;exitX=1;exitY=0.75;exitDx=0;exitDy=0;entryX=0;entryY=0.5;entryDx=0;entryDy=0;" edge="1" parent="1" source="BlBRRxsIzUEOzJf20E_O-4" target="FQ5N_f2iqAyfcSuhGjna-45">
          <mxGeometry width="50" height="50" relative="1" as="geometry">
            <mxPoint x="469" y="580" as="sourcePoint" />
            <mxPoint x="519" y="530" as="targetPoint" />
          </mxGeometry>
        </mxCell>
        <mxCell id="FQ5N_f2iqAyfcSuhGjna-10" value="" style="endArrow=none;html=1;rounded=0;exitX=0.75;exitY=1;exitDx=0;exitDy=0;entryX=0;entryY=0;entryDx=0;entryDy=0;" edge="1" parent="1" source="BlBRRxsIzUEOzJf20E_O-4" target="FQ5N_f2iqAyfcSuhGjna-47">
          <mxGeometry width="50" height="50" relative="1" as="geometry">
            <mxPoint x="469" y="670" as="sourcePoint" />
            <mxPoint x="419" y="630" as="targetPoint" />
          </mxGeometry>
        </mxCell>
        <mxCell id="FQ5N_f2iqAyfcSuhGjna-11" value="prezzo" style="text;html=1;align=center;verticalAlign=middle;resizable=0;points=[];autosize=1;strokeColor=none;fillColor=none;" vertex="1" parent="1">
          <mxGeometry x="424" y="620" width="60" height="30" as="geometry" />
        </mxCell>
        <mxCell id="FQ5N_f2iqAyfcSuhGjna-13" value="" style="shape=flexArrow;endArrow=classic;html=1;rounded=0;" edge="1" parent="1">
          <mxGeometry width="50" height="50" relative="1" as="geometry">
            <mxPoint x="379" y="660" as="sourcePoint" />
            <mxPoint x="379" y="610" as="targetPoint" />
          </mxGeometry>
        </mxCell>
        <mxCell id="FQ5N_f2iqAyfcSuhGjna-14" value="" style="endArrow=none;html=1;rounded=0;" edge="1" parent="1">
          <mxGeometry width="50" height="50" relative="1" as="geometry">
            <mxPoint x="229" y="660" as="sourcePoint" />
            <mxPoint x="529" y="660" as="targetPoint" />
          </mxGeometry>
        </mxCell>
        <mxCell id="FQ5N_f2iqAyfcSuhGjna-15" value="" style="endArrow=none;html=1;rounded=0;exitX=0.5;exitY=0;exitDx=0;exitDy=0;" edge="1" parent="1" source="BlBRRxsIzUEOzJf20E_O-6">
          <mxGeometry width="50" height="50" relative="1" as="geometry">
            <mxPoint x="109" y="680" as="sourcePoint" />
            <mxPoint x="229" y="660" as="targetPoint" />
          </mxGeometry>
        </mxCell>
        <mxCell id="FQ5N_f2iqAyfcSuhGjna-16" value="" style="endArrow=none;html=1;rounded=0;exitX=0.5;exitY=0;exitDx=0;exitDy=0;" edge="1" parent="1" source="BlBRRxsIzUEOzJf20E_O-5">
          <mxGeometry width="50" height="50" relative="1" as="geometry">
            <mxPoint x="329" y="710" as="sourcePoint" />
            <mxPoint x="379" y="660" as="targetPoint" />
          </mxGeometry>
        </mxCell>
        <mxCell id="FQ5N_f2iqAyfcSuhGjna-18" value="" style="endArrow=none;html=1;rounded=0;exitX=0.5;exitY=0;exitDx=0;exitDy=0;" edge="1" parent="1" source="BlBRRxsIzUEOzJf20E_O-7">
          <mxGeometry width="50" height="50" relative="1" as="geometry">
            <mxPoint x="479" y="710" as="sourcePoint" />
            <mxPoint x="529" y="660" as="targetPoint" />
          </mxGeometry>
        </mxCell>
        <mxCell id="FQ5N_f2iqAyfcSuhGjna-19" value="" style="endArrow=none;html=1;rounded=0;entryX=0;entryY=0.5;entryDx=0;entryDy=0;exitX=1;exitY=0.5;exitDx=0;exitDy=0;" edge="1" parent="1" source="FQ5N_f2iqAyfcSuhGjna-49" target="BlBRRxsIzUEOzJf20E_O-6">
          <mxGeometry width="50" height="50" relative="1" as="geometry">
            <mxPoint x="79" y="810" as="sourcePoint" />
            <mxPoint x="129" y="760" as="targetPoint" />
          </mxGeometry>
        </mxCell>
        <mxCell id="FQ5N_f2iqAyfcSuhGjna-20" value="" style="endArrow=none;html=1;rounded=0;entryX=0;entryY=0.75;entryDx=0;entryDy=0;exitX=1;exitY=0.5;exitDx=0;exitDy=0;" edge="1" parent="1" source="FQ5N_f2iqAyfcSuhGjna-21" target="BlBRRxsIzUEOzJf20E_O-12">
          <mxGeometry width="50" height="50" relative="1" as="geometry">
            <mxPoint x="649" y="450" as="sourcePoint" />
            <mxPoint x="699" y="430" as="targetPoint" />
          </mxGeometry>
        </mxCell>
        <mxCell id="FQ5N_f2iqAyfcSuhGjna-21" value="" style="ellipse;whiteSpace=wrap;html=1;aspect=fixed;fillColor=#f5f5f5;fontColor=#333333;strokeColor=#666666;" vertex="1" parent="1">
          <mxGeometry x="629" y="490" width="10" height="10" as="geometry" />
        </mxCell>
        <mxCell id="FQ5N_f2iqAyfcSuhGjna-25" value="locazione" style="text;html=1;align=center;verticalAlign=middle;resizable=0;points=[];autosize=1;strokeColor=none;fillColor=none;" vertex="1" parent="1">
          <mxGeometry x="724" y="535" width="70" height="30" as="geometry" />
        </mxCell>
        <mxCell id="FQ5N_f2iqAyfcSuhGjna-27" value="num. pers." style="text;html=1;align=center;verticalAlign=middle;resizable=0;points=[];autosize=1;strokeColor=none;fillColor=none;" vertex="1" parent="1">
          <mxGeometry x="739" y="50" width="80" height="30" as="geometry" />
        </mxCell>
        <mxCell id="FQ5N_f2iqAyfcSuhGjna-28" value="" style="endArrow=none;html=1;rounded=0;entryX=0.25;entryY=0;entryDx=0;entryDy=0;" edge="1" parent="1" source="FQ5N_f2iqAyfcSuhGjna-29" target="BlBRRxsIzUEOzJf20E_O-33">
          <mxGeometry width="50" height="50" relative="1" as="geometry">
            <mxPoint x="639" y="240" as="sourcePoint" />
            <mxPoint x="689" y="190" as="targetPoint" />
          </mxGeometry>
        </mxCell>
        <mxCell id="FQ5N_f2iqAyfcSuhGjna-29" value="" style="ellipse;whiteSpace=wrap;html=1;aspect=fixed;" vertex="1" parent="1">
          <mxGeometry x="679" y="90" width="10" height="10" as="geometry" />
        </mxCell>
        <mxCell id="FQ5N_f2iqAyfcSuhGjna-31" value="" style="ellipse;whiteSpace=wrap;html=1;aspect=fixed;" vertex="1" parent="1">
          <mxGeometry x="784" y="80" width="10" height="10" as="geometry" />
        </mxCell>
        <mxCell id="FQ5N_f2iqAyfcSuhGjna-32" value="" style="endArrow=none;html=1;rounded=0;entryX=0.75;entryY=0;entryDx=0;entryDy=0;exitX=0.5;exitY=1;exitDx=0;exitDy=0;" edge="1" parent="1" source="FQ5N_f2iqAyfcSuhGjna-31" target="BlBRRxsIzUEOzJf20E_O-33">
          <mxGeometry width="50" height="50" relative="1" as="geometry">
            <mxPoint x="539" y="280" as="sourcePoint" />
            <mxPoint x="589" y="230" as="targetPoint" />
          </mxGeometry>
        </mxCell>
        <mxCell id="FQ5N_f2iqAyfcSuhGjna-33" value="num. stanze" style="text;html=1;align=center;verticalAlign=middle;resizable=0;points=[];autosize=1;strokeColor=none;fillColor=none;" vertex="1" parent="1">
          <mxGeometry x="630" y="60" width="90" height="30" as="geometry" />
        </mxCell>
        <mxCell id="FQ5N_f2iqAyfcSuhGjna-34" value="data assun." style="text;html=1;align=center;verticalAlign=middle;resizable=0;points=[];autosize=1;strokeColor=none;fillColor=none;" vertex="1" parent="1">
          <mxGeometry x="529" y="440" width="90" height="30" as="geometry" />
        </mxCell>
        <mxCell id="FQ5N_f2iqAyfcSuhGjna-35" value="" style="ellipse;whiteSpace=wrap;html=1;aspect=fixed;" vertex="1" parent="1">
          <mxGeometry x="586.5" y="428" width="15" height="15" as="geometry" />
        </mxCell>
        <mxCell id="FQ5N_f2iqAyfcSuhGjna-36" value="" style="ellipse;whiteSpace=wrap;html=1;" vertex="1" parent="1">
          <mxGeometry x="589" y="300" width="10" height="10" as="geometry" />
        </mxCell>
        <mxCell id="FQ5N_f2iqAyfcSuhGjna-37" value="" style="endArrow=none;html=1;rounded=0;entryX=0.5;entryY=1;entryDx=0;entryDy=0;entryPerimeter=0;exitX=0.5;exitY=0;exitDx=0;exitDy=0;" edge="1" parent="1" source="BlBRRxsIzUEOzJf20E_O-16" target="FQ5N_f2iqAyfcSuhGjna-36">
          <mxGeometry width="50" height="50" relative="1" as="geometry">
            <mxPoint x="549" y="370" as="sourcePoint" />
            <mxPoint x="599" y="320" as="targetPoint" />
          </mxGeometry>
        </mxCell>
        <mxCell id="FQ5N_f2iqAyfcSuhGjna-38" value="" style="endArrow=none;html=1;rounded=0;entryX=0.5;entryY=1;entryDx=0;entryDy=0;exitX=0.5;exitY=0;exitDx=0;exitDy=0;" edge="1" parent="1" source="FQ5N_f2iqAyfcSuhGjna-35" target="BlBRRxsIzUEOzJf20E_O-16">
          <mxGeometry width="50" height="50" relative="1" as="geometry">
            <mxPoint x="509" y="460" as="sourcePoint" />
            <mxPoint x="559" y="410" as="targetPoint" />
          </mxGeometry>
        </mxCell>
        <mxCell id="FQ5N_f2iqAyfcSuhGjna-40" value="" style="ellipse;whiteSpace=wrap;html=1;" vertex="1" parent="1">
          <mxGeometry x="719" y="235" width="10" height="10" as="geometry" />
        </mxCell>
        <mxCell id="FQ5N_f2iqAyfcSuhGjna-41" value="" style="endArrow=none;html=1;rounded=0;entryX=0.25;entryY=1;entryDx=0;entryDy=0;exitX=0.5;exitY=0;exitDx=0;exitDy=0;" edge="1" parent="1" source="FQ5N_f2iqAyfcSuhGjna-40" target="BlBRRxsIzUEOzJf20E_O-33">
          <mxGeometry width="50" height="50" relative="1" as="geometry">
            <mxPoint x="639" y="320" as="sourcePoint" />
            <mxPoint x="689" y="270" as="targetPoint" />
          </mxGeometry>
        </mxCell>
        <mxCell id="FQ5N_f2iqAyfcSuhGjna-44" value="" style="endArrow=classic;html=1;rounded=0;exitX=0.5;exitY=1;exitDx=0;exitDy=0;entryX=0.5;entryY=0;entryDx=0;entryDy=0;" edge="1" parent="1" source="BlBRRxsIzUEOzJf20E_O-3" target="BlBRRxsIzUEOzJf20E_O-23">
          <mxGeometry width="50" height="50" relative="1" as="geometry">
            <mxPoint x="379" y="450" as="sourcePoint" />
            <mxPoint x="429" y="400" as="targetPoint" />
            <Array as="points">
              <mxPoint x="394" y="400" />
              <mxPoint x="439" y="400" />
            </Array>
          </mxGeometry>
        </mxCell>
        <mxCell id="FQ5N_f2iqAyfcSuhGjna-45" value="" style="ellipse;whiteSpace=wrap;html=1;" vertex="1" parent="1">
          <mxGeometry x="479" y="590" width="10" height="10" as="geometry" />
        </mxCell>
        <mxCell id="FQ5N_f2iqAyfcSuhGjna-47" value="" style="ellipse;whiteSpace=wrap;html=1;" vertex="1" parent="1">
          <mxGeometry x="424" y="630" width="10" height="10" as="geometry" />
        </mxCell>
        <mxCell id="FQ5N_f2iqAyfcSuhGjna-48" value="" style="ellipse;whiteSpace=wrap;html=1;" vertex="1" parent="1">
          <mxGeometry x="554" y="660" width="10" height="10" as="geometry" />
        </mxCell>
        <mxCell id="FQ5N_f2iqAyfcSuhGjna-49" value="" style="ellipse;whiteSpace=wrap;html=1;" vertex="1" parent="1">
          <mxGeometry x="119" y="705" width="10" height="10" as="geometry" />
        </mxCell>
        <mxCell id="FQ5N_f2iqAyfcSuhGjna-52" value="" style="ellipse;whiteSpace=wrap;html=1;" vertex="1" parent="1">
          <mxGeometry x="119" y="575" width="10" height="10" as="geometry" />
        </mxCell>
        <mxCell id="FQ5N_f2iqAyfcSuhGjna-53" value="" style="endArrow=none;html=1;rounded=0;entryX=0;entryY=0.5;entryDx=0;entryDy=0;exitX=1;exitY=0.5;exitDx=0;exitDy=0;" edge="1" parent="1" source="FQ5N_f2iqAyfcSuhGjna-52" target="BlBRRxsIzUEOzJf20E_O-20">
          <mxGeometry width="50" height="50" relative="1" as="geometry">
            <mxPoint x="99" y="680" as="sourcePoint" />
            <mxPoint x="149" y="630" as="targetPoint" />
          </mxGeometry>
        </mxCell>
        <mxCell id="FQ5N_f2iqAyfcSuhGjna-54" value="" style="endArrow=none;html=1;rounded=0;exitX=1;exitY=0.25;exitDx=0;exitDy=0;entryX=0.295;entryY=-0.038;entryDx=0;entryDy=0;entryPerimeter=0;" edge="1" parent="1" source="BlBRRxsIzUEOzJf20E_O-2" target="BlBRRxsIzUEOzJf20E_O-3">
          <mxGeometry width="50" height="50" relative="1" as="geometry">
            <mxPoint x="159" y="330" as="sourcePoint" />
            <mxPoint x="369" y="280" as="targetPoint" />
            <Array as="points">
              <mxPoint x="239" y="350" />
              <mxPoint x="239" y="280" />
              <mxPoint x="369" y="280" />
            </Array>
          </mxGeometry>
        </mxCell>
        <mxCell id="FQ5N_f2iqAyfcSuhGjna-55" value="matricola" style="text;html=1;align=center;verticalAlign=middle;resizable=0;points=[];autosize=1;strokeColor=none;fillColor=none;" vertex="1" parent="1">
          <mxGeometry x="244" y="370" width="70" height="30" as="geometry" />
        </mxCell>
        <mxCell id="FQ5N_f2iqAyfcSuhGjna-56" value="" style="ellipse;whiteSpace=wrap;html=1;" vertex="1" parent="1">
          <mxGeometry x="279" y="365" width="10" height="10" as="geometry" />
        </mxCell>
        <mxCell id="FQ5N_f2iqAyfcSuhGjna-57" value="" style="ellipse;whiteSpace=wrap;html=1;" vertex="1" parent="1">
          <mxGeometry x="359" y="418" width="10" height="10" as="geometry" />
        </mxCell>
        <mxCell id="FQ5N_f2iqAyfcSuhGjna-58" value="" style="endArrow=none;html=1;rounded=0;exitX=0.5;exitY=0;exitDx=0;exitDy=0;entryX=0.25;entryY=1;entryDx=0;entryDy=0;" edge="1" parent="1" source="FQ5N_f2iqAyfcSuhGjna-57" target="BlBRRxsIzUEOzJf20E_O-3">
          <mxGeometry width="50" height="50" relative="1" as="geometry">
            <mxPoint x="219" y="470" as="sourcePoint" />
            <mxPoint x="269" y="420" as="targetPoint" />
          </mxGeometry>
        </mxCell>
        <mxCell id="FQ5N_f2iqAyfcSuhGjna-59" value="" style="endArrow=none;html=1;rounded=0;entryX=0;entryY=0.632;entryDx=0;entryDy=0;entryPerimeter=0;exitX=1;exitY=0;exitDx=0;exitDy=0;" edge="1" parent="1" source="FQ5N_f2iqAyfcSuhGjna-56" target="BlBRRxsIzUEOzJf20E_O-3">
          <mxGeometry width="50" height="50" relative="1" as="geometry">
            <mxPoint x="239" y="470" as="sourcePoint" />
            <mxPoint x="289" y="420" as="targetPoint" />
          </mxGeometry>
        </mxCell>
        <mxCell id="FQ5N_f2iqAyfcSuhGjna-60" value="città" style="text;html=1;align=center;verticalAlign=middle;resizable=0;points=[];autosize=1;strokeColor=none;fillColor=none;" vertex="1" parent="1">
          <mxGeometry x="629" y="740" width="50" height="30" as="geometry" />
        </mxCell>
        <mxCell id="FQ5N_f2iqAyfcSuhGjna-61" value="cap" style="text;html=1;align=center;verticalAlign=middle;resizable=0;points=[];autosize=1;strokeColor=none;fillColor=none;" vertex="1" parent="1">
          <mxGeometry x="669" y="710" width="40" height="30" as="geometry" />
        </mxCell>
        <mxCell id="FQ5N_f2iqAyfcSuhGjna-62" value="via" style="text;html=1;align=center;verticalAlign=middle;resizable=0;points=[];autosize=1;strokeColor=none;fillColor=none;" vertex="1" parent="1">
          <mxGeometry x="719" y="695" width="40" height="30" as="geometry" />
        </mxCell>
        <mxCell id="FQ5N_f2iqAyfcSuhGjna-63" value="civico" style="text;html=1;align=center;verticalAlign=middle;resizable=0;points=[];autosize=1;strokeColor=none;fillColor=none;" vertex="1" parent="1">
          <mxGeometry x="729" y="640" width="50" height="30" as="geometry" />
        </mxCell>
        <mxCell id="FQ5N_f2iqAyfcSuhGjna-64" value="" style="ellipse;whiteSpace=wrap;html=1;" vertex="1" parent="1">
          <mxGeometry x="794" y="735" width="10" height="10" as="geometry" />
        </mxCell>
        <mxCell id="FQ5N_f2iqAyfcSuhGjna-65" value="" style="ellipse;whiteSpace=wrap;html=1;" vertex="1" parent="1">
          <mxGeometry x="739" y="725" width="10" height="10" as="geometry" />
        </mxCell>
        <mxCell id="FQ5N_f2iqAyfcSuhGjna-66" value="" style="ellipse;whiteSpace=wrap;html=1;" vertex="1" parent="1">
          <mxGeometry x="689" y="735" width="10" height="10" as="geometry" />
        </mxCell>
        <mxCell id="FQ5N_f2iqAyfcSuhGjna-67" value="" style="ellipse;whiteSpace=wrap;html=1;" vertex="1" parent="1">
          <mxGeometry x="669" y="760" width="10" height="10" as="geometry" />
        </mxCell>
        <mxCell id="FQ5N_f2iqAyfcSuhGjna-68" value="" style="endArrow=none;html=1;rounded=0;entryX=0.02;entryY=0.52;entryDx=0;entryDy=0;entryPerimeter=0;exitX=1;exitY=1;exitDx=0;exitDy=0;" edge="1" parent="1" source="FQ5N_f2iqAyfcSuhGjna-67" target="BlBRRxsIzUEOzJf20E_O-83">
          <mxGeometry width="50" height="50" relative="1" as="geometry">
            <mxPoint x="659" y="820" as="sourcePoint" />
            <mxPoint x="709" y="770" as="targetPoint" />
          </mxGeometry>
        </mxCell>
        <mxCell id="FQ5N_f2iqAyfcSuhGjna-70" value="" style="endArrow=none;html=1;rounded=0;exitX=1;exitY=1;exitDx=0;exitDy=0;" edge="1" parent="1" source="FQ5N_f2iqAyfcSuhGjna-66" target="BlBRRxsIzUEOzJf20E_O-83">
          <mxGeometry width="50" height="50" relative="1" as="geometry">
            <mxPoint x="669" y="810" as="sourcePoint" />
            <mxPoint x="719" y="760" as="targetPoint" />
          </mxGeometry>
        </mxCell>
        <mxCell id="FQ5N_f2iqAyfcSuhGjna-71" value="" style="endArrow=none;html=1;rounded=0;exitX=0.37;exitY=-0.049;exitDx=0;exitDy=0;exitPerimeter=0;entryX=0.5;entryY=1;entryDx=0;entryDy=0;" edge="1" parent="1" source="BlBRRxsIzUEOzJf20E_O-83" target="FQ5N_f2iqAyfcSuhGjna-65">
          <mxGeometry width="50" height="50" relative="1" as="geometry">
            <mxPoint x="769" y="730" as="sourcePoint" />
            <mxPoint x="819" y="680" as="targetPoint" />
          </mxGeometry>
        </mxCell>
        <mxCell id="FQ5N_f2iqAyfcSuhGjna-72" value="" style="endArrow=none;html=1;rounded=0;exitX=0.847;exitY=-0.102;exitDx=0;exitDy=0;exitPerimeter=0;entryX=0;entryY=1;entryDx=0;entryDy=0;" edge="1" parent="1" source="BlBRRxsIzUEOzJf20E_O-83" target="FQ5N_f2iqAyfcSuhGjna-64">
          <mxGeometry width="50" height="50" relative="1" as="geometry">
            <mxPoint x="789" y="730" as="sourcePoint" />
            <mxPoint x="839" y="680" as="targetPoint" />
          </mxGeometry>
        </mxCell>
        <mxCell id="FQ5N_f2iqAyfcSuhGjna-95" value="n.reparti" style="text;html=1;align=center;verticalAlign=middle;resizable=0;points=[];autosize=1;strokeColor=none;fillColor=none;" vertex="1" parent="1">
          <mxGeometry x="664" y="388" width="70" height="30" as="geometry" />
        </mxCell>
        <mxCell id="FQ5N_f2iqAyfcSuhGjna-107" value="" style="ellipse;whiteSpace=wrap;html=1;" vertex="1" parent="1">
          <mxGeometry x="699" y="412" width="10" height="10" as="geometry" />
        </mxCell>
        <mxCell id="FQ5N_f2iqAyfcSuhGjna-108" value="" style="endArrow=none;html=1;rounded=0;exitX=0.25;exitY=0;exitDx=0;exitDy=0;entryX=0.5;entryY=1;entryDx=0;entryDy=0;" edge="1" parent="1" target="FQ5N_f2iqAyfcSuhGjna-107" source="BlBRRxsIzUEOzJf20E_O-12">
          <mxGeometry width="50" height="50" relative="1" as="geometry">
            <mxPoint x="688" y="434" as="sourcePoint" />
            <mxPoint x="699" y="430" as="targetPoint" />
          </mxGeometry>
        </mxCell>
        <mxCell id="FQ5N_f2iqAyfcSuhGjna-109" value="" style="ellipse;whiteSpace=wrap;html=1;" vertex="1" parent="1">
          <mxGeometry x="649" y="530" width="10" height="10" as="geometry" />
        </mxCell>
        <mxCell id="FQ5N_f2iqAyfcSuhGjna-110" value="" style="endArrow=none;html=1;rounded=0;exitX=0.293;exitY=1.005;exitDx=0;exitDy=0;exitPerimeter=0;entryX=1;entryY=0;entryDx=0;entryDy=0;" edge="1" parent="1" target="FQ5N_f2iqAyfcSuhGjna-109" source="BlBRRxsIzUEOzJf20E_O-12">
          <mxGeometry width="50" height="50" relative="1" as="geometry">
            <mxPoint x="698" y="562" as="sourcePoint" />
            <mxPoint x="754" y="485" as="targetPoint" />
          </mxGeometry>
        </mxCell>
        <mxCell id="FQ5N_f2iqAyfcSuhGjna-112" value="n. lavor." style="text;html=1;align=center;verticalAlign=middle;resizable=0;points=[];autosize=1;strokeColor=none;fillColor=none;" vertex="1" parent="1">
          <mxGeometry x="601.5" y="535" width="70" height="30" as="geometry" />
        </mxCell>
        <mxCell id="FQ5N_f2iqAyfcSuhGjna-113" value="" style="ellipse;whiteSpace=wrap;html=1;" vertex="1" parent="1">
          <mxGeometry x="754" y="630" width="10" height="10" as="geometry" />
        </mxCell>
        <mxCell id="FQ5N_f2iqAyfcSuhGjna-114" value="" style="endArrow=none;html=1;rounded=0;exitX=0.585;exitY=1.064;exitDx=0;exitDy=0;exitPerimeter=0;entryX=0.5;entryY=0;entryDx=0;entryDy=0;" edge="1" parent="1" target="FQ5N_f2iqAyfcSuhGjna-113" source="FQ5N_f2iqAyfcSuhGjna-25">
          <mxGeometry width="50" height="50" relative="1" as="geometry">
            <mxPoint x="788.5" y="616" as="sourcePoint" />
            <mxPoint x="844.5" y="539" as="targetPoint" />
          </mxGeometry>
        </mxCell>
        <mxCell id="FQ5N_f2iqAyfcSuhGjna-115" value="" style="ellipse;whiteSpace=wrap;html=1;" vertex="1" parent="1">
          <mxGeometry x="799" y="595" width="10" height="10" as="geometry" />
        </mxCell>
        <mxCell id="FQ5N_f2iqAyfcSuhGjna-116" value="" style="endArrow=none;html=1;rounded=0;entryX=0;entryY=0;entryDx=0;entryDy=0;exitX=0.905;exitY=1.011;exitDx=0;exitDy=0;exitPerimeter=0;" edge="1" parent="1" target="FQ5N_f2iqAyfcSuhGjna-115" source="FQ5N_f2iqAyfcSuhGjna-25">
          <mxGeometry width="50" height="50" relative="1" as="geometry">
            <mxPoint x="789" y="580" as="sourcePoint" />
            <mxPoint x="824" y="495" as="targetPoint" />
          </mxGeometry>
        </mxCell>
        <mxCell id="FQ5N_f2iqAyfcSuhGjna-117" value="" style="ellipse;whiteSpace=wrap;html=1;" vertex="1" parent="1">
          <mxGeometry x="709" y="605" width="10" height="10" as="geometry" />
        </mxCell>
        <mxCell id="FQ5N_f2iqAyfcSuhGjna-118" value="" style="endArrow=none;html=1;rounded=0;entryX=1;entryY=0;entryDx=0;entryDy=0;" edge="1" parent="1" target="FQ5N_f2iqAyfcSuhGjna-117" source="FQ5N_f2iqAyfcSuhGjna-25">
          <mxGeometry width="50" height="50" relative="1" as="geometry">
            <mxPoint x="698" y="612" as="sourcePoint" />
            <mxPoint x="754" y="535" as="targetPoint" />
          </mxGeometry>
        </mxCell>
        <mxCell id="FQ5N_f2iqAyfcSuhGjna-119" value="" style="ellipse;whiteSpace=wrap;html=1;" vertex="1" parent="1">
          <mxGeometry x="679" y="590" width="10" height="10" as="geometry" />
        </mxCell>
        <mxCell id="FQ5N_f2iqAyfcSuhGjna-120" value="" style="endArrow=none;html=1;rounded=0;entryX=1;entryY=0;entryDx=0;entryDy=0;" edge="1" parent="1" target="FQ5N_f2iqAyfcSuhGjna-119" source="FQ5N_f2iqAyfcSuhGjna-25">
          <mxGeometry width="50" height="50" relative="1" as="geometry">
            <mxPoint x="678" y="612" as="sourcePoint" />
            <mxPoint x="734" y="535" as="targetPoint" />
          </mxGeometry>
        </mxCell>
        <mxCell id="FQ5N_f2iqAyfcSuhGjna-121" value="città" style="text;html=1;align=center;verticalAlign=middle;resizable=0;points=[];autosize=1;strokeColor=none;fillColor=none;" vertex="1" parent="1">
          <mxGeometry x="630" y="595" width="50" height="30" as="geometry" />
        </mxCell>
        <mxCell id="FQ5N_f2iqAyfcSuhGjna-122" value="cap" style="text;html=1;align=center;verticalAlign=middle;resizable=0;points=[];autosize=1;strokeColor=none;fillColor=none;" vertex="1" parent="1">
          <mxGeometry x="785" y="430" width="40" height="30" as="geometry" />
        </mxCell>
        <mxCell id="FQ5N_f2iqAyfcSuhGjna-123" value="via" style="text;html=1;align=center;verticalAlign=middle;resizable=0;points=[];autosize=1;strokeColor=none;fillColor=none;" vertex="1" parent="1">
          <mxGeometry x="784" y="600" width="40" height="30" as="geometry" />
        </mxCell>
        <mxCell id="FQ5N_f2iqAyfcSuhGjna-124" value="civico" style="text;html=1;align=center;verticalAlign=middle;resizable=0;points=[];autosize=1;strokeColor=none;fillColor=none;" vertex="1" parent="1">
          <mxGeometry x="680" y="615" width="50" height="30" as="geometry" />
        </mxCell>
        <mxCell id="FQ5N_f2iqAyfcSuhGjna-125" value="" style="endArrow=none;html=1;rounded=0;entryX=0.667;entryY=1.033;entryDx=0;entryDy=0;entryPerimeter=0;" edge="1" parent="1" source="FQ5N_f2iqAyfcSuhGjna-25" target="BlBRRxsIzUEOzJf20E_O-12">
          <mxGeometry width="50" height="50" relative="1" as="geometry">
            <mxPoint x="669" y="580" as="sourcePoint" />
            <mxPoint x="719" y="530" as="targetPoint" />
          </mxGeometry>
        </mxCell>
        <mxCell id="FQ5N_f2iqAyfcSuhGjna-127" value="CF" style="text;html=1;align=center;verticalAlign=middle;resizable=0;points=[];autosize=1;strokeColor=none;fillColor=none;" vertex="1" parent="1">
          <mxGeometry x="344" y="100" width="40" height="30" as="geometry" />
        </mxCell>
        <mxCell id="FQ5N_f2iqAyfcSuhGjna-128" value="" style="ellipse;whiteSpace=wrap;html=1;fillColor=#f5f5f5;fontColor=#333333;strokeColor=#666666;" vertex="1" parent="1">
          <mxGeometry x="344" y="128" width="10" height="10" as="geometry" />
        </mxCell>
        <mxCell id="FQ5N_f2iqAyfcSuhGjna-129" value="" style="endArrow=none;html=1;rounded=0;exitX=1;exitY=0;exitDx=0;exitDy=0;entryX=0.5;entryY=1;entryDx=0;entryDy=0;" edge="1" parent="1" target="FQ5N_f2iqAyfcSuhGjna-128" source="BlBRRxsIzUEOzJf20E_O-1">
          <mxGeometry width="50" height="50" relative="1" as="geometry">
            <mxPoint x="228" y="162" as="sourcePoint" />
            <mxPoint x="284" y="85" as="targetPoint" />
          </mxGeometry>
        </mxCell>
        <mxCell id="FQ5N_f2iqAyfcSuhGjna-130" value="num. telefono" style="text;html=1;align=center;verticalAlign=middle;resizable=0;points=[];autosize=1;strokeColor=none;fillColor=none;" vertex="1" parent="1">
          <mxGeometry x="234" y="90" width="100" height="30" as="geometry" />
        </mxCell>
        <mxCell id="FQ5N_f2iqAyfcSuhGjna-132" value="" style="ellipse;whiteSpace=wrap;html=1;" vertex="1" parent="1">
          <mxGeometry x="274" y="118" width="10" height="10" as="geometry" />
        </mxCell>
        <mxCell id="FQ5N_f2iqAyfcSuhGjna-133" value="" style="endArrow=none;html=1;rounded=0;exitX=0.5;exitY=0;exitDx=0;exitDy=0;entryX=0.5;entryY=1;entryDx=0;entryDy=0;" edge="1" parent="1" target="FQ5N_f2iqAyfcSuhGjna-132" source="BlBRRxsIzUEOzJf20E_O-1">
          <mxGeometry width="50" height="50" relative="1" as="geometry">
            <mxPoint x="188" y="192" as="sourcePoint" />
            <mxPoint x="244" y="115" as="targetPoint" />
          </mxGeometry>
        </mxCell>
        <mxCell id="FQ5N_f2iqAyfcSuhGjna-134" value="(1,N)" style="text;html=1;align=center;verticalAlign=middle;resizable=0;points=[];autosize=1;strokeColor=none;fillColor=none;" vertex="1" parent="1">
          <mxGeometry x="234" y="130" width="50" height="30" as="geometry" />
        </mxCell>
        <mxCell id="FQ5N_f2iqAyfcSuhGjna-135" value="dati anagrafici" style="text;html=1;align=center;verticalAlign=middle;resizable=0;points=[];autosize=1;strokeColor=none;fillColor=none;" vertex="1" parent="1">
          <mxGeometry x="112.6" y="90" width="100" height="30" as="geometry" />
        </mxCell>
        <mxCell id="FQ5N_f2iqAyfcSuhGjna-136" value="" style="endArrow=none;html=1;rounded=0;entryX=0.25;entryY=0;entryDx=0;entryDy=0;exitX=0.738;exitY=1.035;exitDx=0;exitDy=0;exitPerimeter=0;" edge="1" parent="1" source="FQ5N_f2iqAyfcSuhGjna-135" target="BlBRRxsIzUEOzJf20E_O-1">
          <mxGeometry width="50" height="50" relative="1" as="geometry">
            <mxPoint x="79" y="260" as="sourcePoint" />
            <mxPoint x="129" y="210" as="targetPoint" />
          </mxGeometry>
        </mxCell>
        <mxCell id="FQ5N_f2iqAyfcSuhGjna-137" value="nome" style="text;html=1;align=center;verticalAlign=middle;resizable=0;points=[];autosize=1;strokeColor=none;fillColor=none;" vertex="1" parent="1">
          <mxGeometry x="179" y="20" width="50" height="30" as="geometry" />
        </mxCell>
        <mxCell id="FQ5N_f2iqAyfcSuhGjna-138" value="cognome" style="text;html=1;align=center;verticalAlign=middle;resizable=0;points=[];autosize=1;strokeColor=none;fillColor=none;" vertex="1" parent="1">
          <mxGeometry x="94" y="20" width="70" height="30" as="geometry" />
        </mxCell>
        <mxCell id="FQ5N_f2iqAyfcSuhGjna-139" value="sesso" style="text;html=1;align=center;verticalAlign=middle;resizable=0;points=[];autosize=1;strokeColor=none;fillColor=none;" vertex="1" parent="1">
          <mxGeometry x="34.5" y="30" width="50" height="30" as="geometry" />
        </mxCell>
        <mxCell id="FQ5N_f2iqAyfcSuhGjna-140" value="data nascita" style="text;html=1;align=center;verticalAlign=middle;resizable=0;points=[];autosize=1;strokeColor=none;fillColor=none;" vertex="1" parent="1">
          <mxGeometry x="4" y="60" width="90" height="30" as="geometry" />
        </mxCell>
        <mxCell id="FQ5N_f2iqAyfcSuhGjna-141" value="luogo nascita" style="text;html=1;align=center;verticalAlign=middle;resizable=0;points=[];autosize=1;strokeColor=none;fillColor=none;" vertex="1" parent="1">
          <mxGeometry x="39" y="138" width="90" height="30" as="geometry" />
        </mxCell>
        <mxCell id="FQ5N_f2iqAyfcSuhGjna-142" value="" style="ellipse;whiteSpace=wrap;html=1;" vertex="1" parent="1">
          <mxGeometry x="194" y="50" width="10" height="10" as="geometry" />
        </mxCell>
        <mxCell id="FQ5N_f2iqAyfcSuhGjna-143" value="" style="endArrow=none;html=1;rounded=0;entryX=0.5;entryY=1;entryDx=0;entryDy=0;exitX=0.749;exitY=0.084;exitDx=0;exitDy=0;exitPerimeter=0;" edge="1" parent="1" target="FQ5N_f2iqAyfcSuhGjna-142" source="FQ5N_f2iqAyfcSuhGjna-135">
          <mxGeometry width="50" height="50" relative="1" as="geometry">
            <mxPoint x="175.39573398947275" y="164" as="sourcePoint" />
            <mxPoint x="227.6" y="95" as="targetPoint" />
          </mxGeometry>
        </mxCell>
        <mxCell id="FQ5N_f2iqAyfcSuhGjna-144" value="" style="ellipse;whiteSpace=wrap;html=1;" vertex="1" parent="1">
          <mxGeometry x="144" y="50" width="10" height="10" as="geometry" />
        </mxCell>
        <mxCell id="FQ5N_f2iqAyfcSuhGjna-145" value="" style="endArrow=none;html=1;rounded=0;exitX=0.439;exitY=0.031;exitDx=0;exitDy=0;exitPerimeter=0;entryX=0.5;entryY=1;entryDx=0;entryDy=0;" edge="1" parent="1" target="FQ5N_f2iqAyfcSuhGjna-144" source="FQ5N_f2iqAyfcSuhGjna-135">
          <mxGeometry width="50" height="50" relative="1" as="geometry">
            <mxPoint x="104" y="176" as="sourcePoint" />
            <mxPoint x="160" y="99" as="targetPoint" />
          </mxGeometry>
        </mxCell>
        <mxCell id="FQ5N_f2iqAyfcSuhGjna-146" value="" style="ellipse;whiteSpace=wrap;html=1;" vertex="1" parent="1">
          <mxGeometry x="84" y="50" width="10" height="10" as="geometry" />
        </mxCell>
        <mxCell id="FQ5N_f2iqAyfcSuhGjna-147" value="" style="endArrow=none;html=1;rounded=0;exitX=0.154;exitY=-0.012;exitDx=0;exitDy=0;exitPerimeter=0;entryX=1;entryY=1;entryDx=0;entryDy=0;" edge="1" parent="1" target="FQ5N_f2iqAyfcSuhGjna-146" source="FQ5N_f2iqAyfcSuhGjna-135">
          <mxGeometry width="50" height="50" relative="1" as="geometry">
            <mxPoint x="63.5" y="182" as="sourcePoint" />
            <mxPoint x="119.5" y="105" as="targetPoint" />
          </mxGeometry>
        </mxCell>
        <mxCell id="FQ5N_f2iqAyfcSuhGjna-148" value="" style="ellipse;whiteSpace=wrap;html=1;" vertex="1" parent="1">
          <mxGeometry x="69" y="90" width="10" height="10" as="geometry" />
        </mxCell>
        <mxCell id="FQ5N_f2iqAyfcSuhGjna-149" value="" style="endArrow=none;html=1;rounded=0;exitX=0.001;exitY=0.406;exitDx=0;exitDy=0;exitPerimeter=0;entryX=1;entryY=0.5;entryDx=0;entryDy=0;" edge="1" parent="1" target="FQ5N_f2iqAyfcSuhGjna-148" source="FQ5N_f2iqAyfcSuhGjna-135">
          <mxGeometry width="50" height="50" relative="1" as="geometry">
            <mxPoint x="125" y="226" as="sourcePoint" />
            <mxPoint x="181" y="149" as="targetPoint" />
          </mxGeometry>
        </mxCell>
        <mxCell id="FQ5N_f2iqAyfcSuhGjna-150" value="" style="ellipse;whiteSpace=wrap;html=1;" vertex="1" parent="1">
          <mxGeometry x="129" y="148" width="10" height="10" as="geometry" />
        </mxCell>
        <mxCell id="FQ5N_f2iqAyfcSuhGjna-151" value="" style="endArrow=none;html=1;rounded=0;exitX=0.5;exitY=0;exitDx=0;exitDy=0;entryX=0.254;entryY=1.024;entryDx=0;entryDy=0;entryPerimeter=0;" edge="1" parent="1" target="FQ5N_f2iqAyfcSuhGjna-135" source="FQ5N_f2iqAyfcSuhGjna-150">
          <mxGeometry width="50" height="50" relative="1" as="geometry">
            <mxPoint x="121.54" y="214.73000000000002" as="sourcePoint" />
            <mxPoint x="134.0044660940673" y="201.26553390593267" as="targetPoint" />
          </mxGeometry>
        </mxCell>
        <mxCell id="FQ5N_f2iqAyfcSuhGjna-152" value="" style="ellipse;whiteSpace=wrap;html=1;" vertex="1" parent="1">
          <mxGeometry x="60" y="220" width="10" height="10" as="geometry" />
        </mxCell>
        <mxCell id="FQ5N_f2iqAyfcSuhGjna-153" value="" style="endArrow=none;html=1;rounded=0;entryX=0.004;entryY=0.733;entryDx=0;entryDy=0;entryPerimeter=0;exitX=1;exitY=0.5;exitDx=0;exitDy=0;" edge="1" parent="1" target="BlBRRxsIzUEOzJf20E_O-67" source="FQ5N_f2iqAyfcSuhGjna-152">
          <mxGeometry width="50" height="50" relative="1" as="geometry">
            <mxPoint x="89" y="260" as="sourcePoint" />
            <mxPoint x="101.46446609406729" y="249.99553390593272" as="targetPoint" />
          </mxGeometry>
        </mxCell>
        <mxCell id="FQ5N_f2iqAyfcSuhGjna-154" value="" style="ellipse;whiteSpace=wrap;html=1;" vertex="1" parent="1">
          <mxGeometry x="54.5" y="260" width="10" height="10" as="geometry" />
        </mxCell>
        <mxCell id="FQ5N_f2iqAyfcSuhGjna-155" value="" style="endArrow=none;html=1;rounded=0;exitX=1;exitY=0;exitDx=0;exitDy=0;entryX=0.081;entryY=1.009;entryDx=0;entryDy=0;entryPerimeter=0;" edge="1" parent="1" target="BlBRRxsIzUEOzJf20E_O-67" source="FQ5N_f2iqAyfcSuhGjna-154">
          <mxGeometry width="50" height="50" relative="1" as="geometry">
            <mxPoint x="104" y="280" as="sourcePoint" />
            <mxPoint x="116.46446609406729" y="266.5355339059327" as="targetPoint" />
          </mxGeometry>
        </mxCell>
        <mxCell id="FQ5N_f2iqAyfcSuhGjna-156" value="" style="ellipse;whiteSpace=wrap;html=1;" vertex="1" parent="1">
          <mxGeometry x="94" y="275" width="10" height="10" as="geometry" />
        </mxCell>
        <mxCell id="FQ5N_f2iqAyfcSuhGjna-157" value="" style="endArrow=none;html=1;rounded=0;entryX=0.261;entryY=1.044;entryDx=0;entryDy=0;entryPerimeter=0;exitX=1;exitY=0;exitDx=0;exitDy=0;" edge="1" parent="1" target="BlBRRxsIzUEOzJf20E_O-67" source="FQ5N_f2iqAyfcSuhGjna-156">
          <mxGeometry width="50" height="50" relative="1" as="geometry">
            <mxPoint x="139" y="290" as="sourcePoint" />
            <mxPoint x="136.4644660940673" y="261.5355339059327" as="targetPoint" />
          </mxGeometry>
        </mxCell>
        <mxCell id="FQ5N_f2iqAyfcSuhGjna-158" value="" style="ellipse;whiteSpace=wrap;html=1;" vertex="1" parent="1">
          <mxGeometry x="154" y="280" width="10" height="10" as="geometry" />
        </mxCell>
        <mxCell id="FQ5N_f2iqAyfcSuhGjna-159" value="" style="endArrow=none;html=1;rounded=0;exitX=0.5;exitY=0;exitDx=0;exitDy=0;entryX=0.582;entryY=1.024;entryDx=0;entryDy=0;entryPerimeter=0;" edge="1" parent="1" target="BlBRRxsIzUEOzJf20E_O-67" source="FQ5N_f2iqAyfcSuhGjna-158">
          <mxGeometry width="50" height="50" relative="1" as="geometry">
            <mxPoint x="185.97" y="318.46000000000004" as="sourcePoint" />
            <mxPoint x="202.0344660940626" y="289.99553390593746" as="targetPoint" />
          </mxGeometry>
        </mxCell>
        <mxCell id="FQ5N_f2iqAyfcSuhGjna-160" value="" style="endArrow=none;html=1;rounded=0;entryX=0;entryY=0.5;entryDx=0;entryDy=0;exitX=1.015;exitY=0.409;exitDx=0;exitDy=0;exitPerimeter=0;" edge="1" parent="1" source="BlBRRxsIzUEOzJf20E_O-67" target="BlBRRxsIzUEOzJf20E_O-1">
          <mxGeometry width="50" height="50" relative="1" as="geometry">
            <mxPoint x="159" y="270" as="sourcePoint" />
            <mxPoint x="209" y="220" as="targetPoint" />
            <Array as="points" />
          </mxGeometry>
        </mxCell>
        <mxCell id="FQ5N_f2iqAyfcSuhGjna-161" value="via" style="text;html=1;align=center;verticalAlign=middle;resizable=0;points=[];autosize=1;strokeColor=none;fillColor=none;" vertex="1" parent="1">
          <mxGeometry x="139" y="290" width="40" height="30" as="geometry" />
        </mxCell>
        <mxCell id="FQ5N_f2iqAyfcSuhGjna-162" value="città" style="text;html=1;align=center;verticalAlign=middle;resizable=0;points=[];autosize=1;strokeColor=none;fillColor=none;" vertex="1" parent="1">
          <mxGeometry x="10" y="208" width="50" height="30" as="geometry" />
        </mxCell>
        <mxCell id="FQ5N_f2iqAyfcSuhGjna-163" value="cap" style="text;html=1;align=center;verticalAlign=middle;resizable=0;points=[];autosize=1;strokeColor=none;fillColor=none;" vertex="1" parent="1">
          <mxGeometry x="20" y="250" width="40" height="30" as="geometry" />
        </mxCell>
        <mxCell id="FQ5N_f2iqAyfcSuhGjna-164" value="civico" style="text;html=1;align=center;verticalAlign=middle;resizable=0;points=[];autosize=1;strokeColor=none;fillColor=none;" vertex="1" parent="1">
          <mxGeometry x="70" y="280" width="50" height="30" as="geometry" />
        </mxCell>
        <mxCell id="FQ5N_f2iqAyfcSuhGjna-167" value="codice" style="text;html=1;align=center;verticalAlign=middle;resizable=0;points=[];autosize=1;strokeColor=none;fillColor=none;" vertex="1" parent="1">
          <mxGeometry x="720" y="775" width="60" height="30" as="geometry" />
        </mxCell>
        <mxCell id="FQ5N_f2iqAyfcSuhGjna-168" value="" style="endArrow=none;html=1;rounded=0;entryX=0.5;entryY=1;entryDx=0;entryDy=0;exitX=0.5;exitY=0;exitDx=0;exitDy=0;" edge="1" parent="1" source="FQ5N_f2iqAyfcSuhGjna-169" target="BlBRRxsIzUEOzJf20E_O-79">
          <mxGeometry width="50" height="50" relative="1" as="geometry">
            <mxPoint x="749" y="890" as="sourcePoint" />
            <mxPoint x="729" y="880" as="targetPoint" />
          </mxGeometry>
        </mxCell>
        <mxCell id="FQ5N_f2iqAyfcSuhGjna-169" value="" style="ellipse;whiteSpace=wrap;html=1;fillColor=#f5f5f5;fontColor=#333333;strokeColor=#666666;" vertex="1" parent="1">
          <mxGeometry x="754" y="895" width="10" height="10" as="geometry" />
        </mxCell>
      </root>
    </mxGraphModel>
  </diagram>
</mxfile>
